<svg width="100%" height="100%" id="svg" viewBox="0 0 1440 690" xmlns="http://www.w3.org/2000/svg" class="transition duration-300 ease-in-out delay-150"><defs><linearGradient id="gradient" x1="0%" y1="50%" x2="100%" y2="50%"><stop offset="5%" stop-color="#8ed1fc"></stop><stop offset="95%" stop-color="#8ED1FC"></stop></linearGradient></defs><path d="M 0,700 L 0,105 C 24.442592414732985,130.33580945647847 48.88518482946597,155.67161891295694 80,137 C 111.11481517053403,118.32838108704307 148.90185309686913,55.64933380465072 176,59 C 203.09814690313087,62.35066619534928 219.5074027830575,131.73104586844013 246,142 C 272.4925972169425,152.26895413155987 309.0685357709009,103.42648272158875 343,75 C 376.9314642290991,46.573517278411245 408.2184541333389,38.563023245204846 436,56 C 463.7815458666611,73.43697675479515 488.05764769574364,116.32142429759189 516,120 C 543.9423523042564,123.67857570240811 575.5509550836866,88.15127956442758 603,78 C 630.4490449163134,67.84872043557242 653.7385319695102,83.07345744469778 682,79 C 710.2614680304898,74.92654255530222 743.4949170382725,51.55489065678127 770,62 C 796.5050829617275,72.44510934321873 816.2817998773997,116.70697992817713 839,125 C 861.7182001226003,133.29302007182287 887.3778834521286,105.61718963051025 921,97 C 954.6221165478714,88.38281036948975 996.2066663140856,98.82426154978188 1029,117 C 1061.7933336859144,135.17573845021812 1085.7954512915296,161.08576417036232 1113,140 C 1140.2045487084704,118.91423582963766 1170.611528519796,50.83268176876885 1199,53 C 1227.388471480204,55.16731823123115 1253.7584346292858,127.58350875456222 1281,155 C 1308.2415653707142,182.41649124543778 1336.3547329630612,164.8332832129822 1363,149 C 1389.6452670369388,133.1667167870178 1414.8226335184695,119.0833583935089 1440,105 L 1440,700 L 0,700 Z" stroke="none" stroke-width="0" fill="url(#gradient)" fill-opacity="0.265" class="transition-all duration-300 ease-in-out delay-150 path-0"></path><defs><linearGradient id="gradient" x1="0%" y1="50%" x2="100%" y2="50%"><stop offset="5%" stop-color="#8ed1fc"></stop><stop offset="95%" stop-color="#8ED1FC"></stop></linearGradient></defs><path d="M 0,700 L 0,245 C 19.873213342598092,224.45826365324604 39.746426685196184,203.91652730649207 69,219 C 98.25357331480382,234.08347269350793 136.88750660181339,284.79215442727775 167,280 C 197.11249339818661,275.20784557272225 218.70354690755028,214.9148549843969 248,210 C 277.2964530924497,205.0851450156031 314.2983057679856,255.54842563513466 347,265 C 379.7016942320144,274.45157436486534 408.1032300205072,242.89144247506468 438,237 C 467.8967699794928,231.10855752493532 499.28877414998556,250.88580446460668 520,255 C 540.7112258500144,259.1141955353933 550.7416733795505,247.56533966650852 581,254 C 611.2583266204495,260.4346603334915 661.7445323318124,284.8528368693593 693,295 C 724.2554676681876,305.1471631306407 736.2801972932004,301.02331285605425 758,292 C 779.7198027067996,282.97668714394575 811.1346784953863,269.0539117064236 841,272 C 870.8653215046137,274.9460882935764 899.1810887252545,294.76104031825105 932,276 C 964.8189112747455,257.23895968174895 1002.1409666035959,199.9019270205723 1030,201 C 1057.8590333964041,202.0980729794277 1076.2550448603624,261.6312515994599 1100,260 C 1123.7449551396376,258.3687484005401 1152.8388539549544,195.57306658158802 1183,202 C 1213.1611460450456,208.42693341841198 1244.3895393198197,284.0764820741878 1273,291 C 1301.6104606801803,297.9235179258122 1327.6029887657655,236.1210051216606 1355,217 C 1382.3970112342345,197.8789948783394 1411.1985056171172,221.4394974391697 1440,245 L 1440,700 L 0,700 Z" stroke="none" stroke-width="0" fill="url(#gradient)" fill-opacity="0.4" class="transition-all duration-300 ease-in-out delay-150 path-1"></path><defs><linearGradient id="gradient" x1="0%" y1="50%" x2="100%" y2="50%"><stop offset="5%" stop-color="#8ed1fc"></stop><stop offset="95%" stop-color="#8ED1FC"></stop></linearGradient></defs><path d="M 0,700 L 0,385 C 25.18307222119499,399.11379894735484 50.36614444238998,413.2275978947097 80,417 C 109.63385555761002,420.7724021052903 143.71849445163508,414.203407368516 170,399 C 196.28150554836492,383.796592631484 214.75987775106967,359.95877263122634 242,362 C 269.24012224893033,364.04122736877366 305.24199454408625,391.9615021065788 335,410 C 364.75800545591375,428.0384978934212 388.2721440725854,436.19521894245844 418,417 C 447.7278559274146,397.80478105754156 483.6694291655724,351.25762212358717 510,332 C 536.3305708344276,312.74237787641283 553.0501392651249,320.77429256319294 579,334 C 604.9498607348751,347.22570743680706 640.1300137739275,365.64520762364106 676,370 C 711.8699862260725,374.35479237635894 748.4298056391651,364.6448769422429 774,369 C 799.5701943608349,373.3551230577571 814.1507636694122,391.7752846073875 840,399 C 865.8492363305878,406.2247153926125 902.967139683186,402.2539846282069 934,411 C 965.032860316814,419.7460153717931 989.9806775978436,441.2087768797847 1017,426 C 1044.0193224021564,410.7912231202153 1073.1101499254398,358.9109078526544 1101,350 C 1128.8898500745602,341.0890921473456 1155.5787227003975,375.14759170959775 1180,385 C 1204.4212772996025,394.85240829040225 1226.5749592729699,380.4987253089545 1257,385 C 1287.4250407270301,389.5012746910455 1326.1214402077228,412.8575070545844 1358,416 C 1389.8785597922772,419.1424929454156 1414.9392798961385,402.0712464727078 1440,385 L 1440,700 L 0,700 Z" stroke="none" stroke-width="0" fill="url(#gradient)" fill-opacity="0.53" class="transition-all duration-300 ease-in-out delay-150 path-2"></path><defs><linearGradient id="gradient" x1="0%" y1="50%" x2="100%" y2="50%"><stop offset="5%" stop-color="#8ed1fc"></stop><stop offset="95%" stop-color="#8ED1FC"></stop></linearGradient></defs><path d="M 0,700 L 0,525 C 29.876341681411418,502.921207541718 59.752683362822836,480.8424150834359 88,485 C 116.24731663717716,489.1575849165641 142.86560823012005,519.5515472079742 167,536 C 191.13439176987995,552.4484527920258 212.78488371669698,554.9513960846674 243,549 C 273.215116283303,543.0486039153326 311.99485690309183,528.6428684533562 347,531 C 382.00514309690817,533.3571315466438 413.23568867093576,552.477130101908 436,564 C 458.76431132906424,575.522869898092 473.0623884131653,579.4486111390122 498,555 C 522.9376115868347,530.5513888609878 558.5147576764032,477.72842534204295 587,482 C 615.4852423235968,486.27157465795705 636.8785808812223,547.6376874928161 669,564 C 701.1214191187777,580.3623125071839 743.9709187987075,551.7208246866927 777,530 C 810.0290812012925,508.2791753133073 833.2377439239472,493.4790137604131 860,486 C 886.7622560760528,478.5209862395869 917.0781055055035,478.3631202716544 943,478 C 968.9218944944965,477.6368797283456 990.4498340540397,477.068505152969 1018,499 C 1045.5501659459603,520.931494847031 1079.1225582783372,565.3628591164697 1106,566 C 1132.8774417216628,566.6371408835303 1153.0599328326107,523.4800583811525 1182,508 C 1210.9400671673893,492.5199416188475 1248.6377103912203,504.7169073589205 1276,504 C 1303.3622896087797,503.2830926410795 1320.3892256025083,489.6523121831656 1346,491 C 1371.6107743974917,492.3476878168344 1405.8053871987458,508.6738439084172 1440,525 L 1440,700 L 0,700 Z" stroke="none" stroke-width="0" fill="url(#gradient)" fill-opacity="1" class="transition-all duration-300 ease-in-out delay-150 path-3"></path></svg>